<svg xmlns="http://www.w3.org/2000/svg" xmlns:xlink="http://www.w3.org/1999/xlink" viewBox="0 0 500 500"><defs><clipPath id="freepik--clip-path--inject-1043"><path d="M351.34,219.56s-9.06-1.61-13.49.8-30,21.54-30,21.54l-21.74-16.5v10.67s15.1,18.12,19.53,19.32,35.43-15.9,35.43-15.9-1.2,16.71.81,20.33,11.68,6.65,19.53,10.07,16.11,12.89,20.94,15.1,8.66,1.61,12.08-7.85-.81-15.7-2-18.32a228.17,228.17,0,0,0-15.91-25.37C369.67,224.19,351.34,219.56,351.34,219.56Z" style="fill:#fff;stroke:#263238;stroke-linecap:round;stroke-linejoin:round"></path></clipPath><clipPath id="freepik--clip-path-2--inject-1043"><path d="M148.79,211.34s-5-1.77-14.33,7.25-18.58,18-24.42,28.13-8.67,25-9.37,34a15.45,15.45,0,0,0,20,15.6c7-2.06,30.37-33.64,34.08-38.6s7.43-11.14,7.43-11.14,19.46,18.22,26.54,21.4S207,269,207,269l.53-12s-10.44-1.77-11.32-2.3-15.92-17.51-23.71-26.89-13.09-15.21-17-16.63A8.52,8.52,0,0,0,148.79,211.34Z" style="fill:#fff;stroke:#263238;stroke-linecap:round;stroke-linejoin:round"></path></clipPath><clipPath id="freepik--clip-path-3--inject-1043"><path d="M151.62,205.86s-3.72,4.42-6.37,7.07-3.89,2.66-3.89,7.79,2.18,18.36,5.36,19.07,16.22-18.54,16.22-18.54l-4.6-17.69S153.39,203.38,151.62,205.86Z" style="fill:#fff;stroke:#263238;stroke-linecap:round;stroke-linejoin:round"></path></clipPath><clipPath id="freepik--clip-path-4--inject-1043"><path d="M182,192.76c.84,2.12,1,4.55,1,7.61,0,3.54-1.06,6.55-.53,8.14s3.18,3.72,2.48,5.31-4.78,2.47-4.78,3a60.22,60.22,0,0,1-4.6,9.9c-1.77,2.83-6,1.59-12.21-.88s-7.07-7.08-7.78-10.09.53-13.62.88-21.23c.19-4,1-6.93,5-8.72a16.77,16.77,0,0,1,16,1.61A11.58,11.58,0,0,1,182,192.76Z" style="fill:#fff;stroke:#263238;stroke-linecap:round;stroke-linejoin:round"></path></clipPath><clipPath id="freepik--clip-path-5--inject-1043"><path d="M110.93,257.87s21,38.21,25.83,46,9.73,8.49,12.56,8.49,61.21-8,61.21-8V300s-29-1.41-37.33-3.18-20.7-2.48-20.7-2.48S141,260.7,136.4,254.15a19.53,19.53,0,0,0-11.32-7.78" style="fill:#fff;stroke:#263238;stroke-linecap:round;stroke-linejoin:round"></path></clipPath><clipPath id="freepik--clip-path-6--inject-1043"><path d="M359.2,243.31l-28.8,33L288.12,289s-11.27-1-13.89-1.21-4.63,1.81-6.24,3.42-5.64,3-4.83,4.23,2.21.61,4.83-.2,4.43-1.21,4.43-1.21-8.66,8.06-10.87,10.27-1.82,3.42-.41,3.42,9.06-7,9.06-7a56.28,56.28,0,0,0-3.82,5c-1.41,2.21-3.43,4-2,4.43s7.25-5,7.25-5l2.82-1.82s-4.63,5.24-3.62,5.84,5.43-3.82,5.43-3.82,7.25-2.42,9.26-4.83,3.23-4,3.23-4,22.75-4.23,31.2-5.64,18.33-2.62,21.95-5.84,32.21-30.4,33.62-34" style="fill:#fff;stroke:#263238;stroke-linecap:round;stroke-linejoin:round"></path></clipPath><clipPath id="freepik--clip-path-7--inject-1043"><path d="M329.2,185.93a21.31,21.31,0,0,0-1.82,10.27c.61,5.24.81,7.85-.2,9.26s-2.61.81-2.41,3.43,3.42,3.62,3.42,3.62,4.43,8.66,6,10.47,3.82,1,5.64.2,5.43-2.62,5.43-2.62,4.63,12.08,6.85,14.9,4-1,4.63-4.23,1-10.47,0-12.88-3.83-8.66-3.83-8.66,5.84-.8,9.47-8.66-4-18.12-15.1-20.53S330.4,183.11,329.2,185.93Z" style="fill:#fff;stroke:#263238;stroke-linecap:round;stroke-linejoin:round"></path></clipPath></defs><g id="freepik--background-simple--inject-1043"><path d="M391,151.65S349.73,97.3,270.23,90.1s-101.4,45.18-128.94,72S56.16,208.61,51.77,273.44s30.68,97.56,79.5,96.25,63.85,9.83,105.16,32.09,110.17,13.09,142.72-20.3,57-49.76,63.85-112S391,151.65,391,151.65Z" style="fill:#5E4E97"></path><path d="M391,151.65S349.73,97.3,270.23,90.1s-101.4,45.18-128.94,72S56.16,208.61,51.77,273.44s30.68,97.56,79.5,96.25,63.85,9.83,105.16,32.09,110.17,13.09,142.72-20.3,57-49.76,63.85-112S391,151.65,391,151.65Z" style="fill:#fff;opacity:0.7000000000000001"></path></g><g id="freepik--Icon--inject-1043"><path d="M318.78,334.85A25.36,25.36,0,0,0,303.41,340L198.59,254.4a25.43,25.43,0,0,0,.59-20.71l103.1-75a25.51,25.51,0,1,0-7.13-9.78l-103.1,75a25.56,25.56,0,1,0-1.12,39.86L295.75,349.4a25.53,25.53,0,1,0,23-14.55Z" style="fill:#fff;opacity:0.5"></path></g><g id="freepik--device-1--inject-1043"><path d="M131.33,166.6l26.82,183.85c.35,2.42-62.08,24.83-64.42,25.55l-5.47.29c-3.54.09-6-1.39-6.44-4.43L56.18,177.07a3.87,3.87,0,0,1,3.31-4.35L127,163.31A3.88,3.88,0,0,1,131.33,166.6Z" style="fill:#fff;stroke:#263238;stroke-linecap:round;stroke-linejoin:round"></path><path d="M139,165.59,165.8,349.44a5,5,0,0,1-3.45,5.46L95.91,375.29a5,5,0,0,1-6.37-4.1L63.83,176.06a3.88,3.88,0,0,1,3.32-4.35l67.45-9.41A3.89,3.89,0,0,1,139,165.59Z" style="fill:#263238;stroke:#263238;stroke-linecap:round;stroke-linejoin:round"></path><line x1="122.92" y1="356.42" x2="137.69" y2="351.5" style="fill:none;stroke:#fff;stroke-linecap:round;stroke-linejoin:round;stroke-width:2px"></line><polygon points="133.8 170.43 73.39 180.7 96.55 358.28 158.16 339.15 133.8 170.43" style="fill:#5E4E97;stroke:#263238;stroke-linecap:round;stroke-linejoin:round"></polygon></g><g id="freepik--device-2--inject-1043"><path d="M375,166.6,348.13,350.45c-.35,2.42,62.08,24.83,64.42,25.55l5.47.29c3.54.09,6-1.39,6.44-4.43L450.1,177.07a3.87,3.87,0,0,0-3.32-4.35l-67.45-9.41A3.88,3.88,0,0,0,375,166.6Z" style="fill:#fff;stroke:#263238;stroke-linecap:round;stroke-linejoin:round"></path><path d="M367.3,165.59,340.48,349.44a5,5,0,0,0,3.45,5.46l66.44,20.39a5,5,0,0,0,6.37-4.1l25.71-195.13a3.88,3.88,0,0,0-3.32-4.35l-67.45-9.41A3.89,3.89,0,0,0,367.3,165.59Z" style="fill:#263238;stroke:#263238;stroke-linecap:round;stroke-linejoin:round"></path><line x1="365.79" y1="350.09" x2="379.86" y2="354.66" style="fill:none;stroke:#fff;stroke-linecap:round;stroke-linejoin:round;stroke-width:2px"></line><polygon points="372.48 170.43 432.89 180.7 409.73 358.28 348.12 339.15 372.48 170.43" style="fill:#5E4E97;stroke:#263238;stroke-linecap:round;stroke-linejoin:round"></polygon></g><g id="freepik--Photo--inject-1043"><path d="M100.56,254c3.51-4.51,8.1-7.25,13.13-7.25,11,0,19.9,13.06,19.9,29.18,0,13.71-6.46,25.22-15.16,28.34" style="fill:none;stroke:#263238;stroke-linecap:round;stroke-linejoin:round"></path><path d="M96.06,262.36a32.52,32.52,0,0,1,2.56-5.52" style="fill:none;stroke:#263238;stroke-linecap:round;stroke-linejoin:round"></path><path d="M113.69,305.07c-11,0-19.89-13.07-19.89-29.18a41.55,41.55,0,0,1,1.25-10.23" style="fill:none;stroke:#263238;stroke-linecap:round;stroke-linejoin:round"></path><path d="M398.82,251c-3.51-4.51-8.1-7.25-13.13-7.25-11,0-19.89,13.06-19.89,29.18,0,13.71,6.45,25.22,15.15,28.34" style="fill:none;stroke:#263238;stroke-linecap:round;stroke-linejoin:round"></path><path d="M403.32,259.36a32.52,32.52,0,0,0-2.56-5.52" style="fill:none;stroke:#263238;stroke-linecap:round;stroke-linejoin:round"></path><path d="M385.69,302.07c11,0,19.9-13.07,19.9-29.18a41.54,41.54,0,0,0-1.26-10.23" style="fill:none;stroke:#263238;stroke-linecap:round;stroke-linejoin:round"></path><path d="M362.82,175.46s8.25-11.88,21.54-8.05,20.14,12.88,19.13,22.35-3.42,20.74,3.22,23.15,16.51-1,22,6.65,7.65,19.53-.2,29.59S403.29,261.84,390.2,254s-22.35-17.92-22.55-32.42,4-21.14,3-29.4-3.22-8.86-3.22-8.86Z" style="fill:#263238;stroke:#263238;stroke-linecap:round;stroke-linejoin:round"></path><path d="M382.35,188c3.28,7.14-2.53,22.6-3,28.77-1.35,16.82,5.38,31.28,23.88,34.3s25.89-12.1,23.88-19.5c-1.43-5.23-9.42-3.7-10.09,3.36s6.05,3.36,6.39,2" style="fill:none;stroke:#fff;stroke-linecap:round;stroke-linejoin:round;stroke-width:0.75px"></path><path d="M365.21,184.52s7.46-3.74,14.32.47" style="fill:none;stroke:#fff;stroke-linecap:round;stroke-linejoin:round;stroke-width:0.75px"></path><path d="M410,240.68a19.12,19.12,0,0,0,3.26-1.35" style="fill:none;stroke:#fff;stroke-linecap:round;stroke-linejoin:round;stroke-width:0.75px"></path><path d="M362.85,183.17s10.76-8.41,22.87-5.38,12.78,19.5,8.41,29.59-6.39,22.54,1,30.27a12.76,12.76,0,0,0,10.72,3.88" style="fill:none;stroke:#fff;stroke-linecap:round;stroke-linejoin:round;stroke-width:0.75px"></path><path d="M351.34,219.56s-9.06-1.61-13.49.8-30,21.54-30,21.54l-21.74-16.5v10.67s15.1,18.12,19.53,19.32,35.43-15.9,35.43-15.9-1.2,16.71.81,20.33,11.68,6.65,19.53,10.07,16.11,12.89,20.94,15.1,8.66,1.61,12.08-7.85-.81-15.7-2-18.32a228.17,228.17,0,0,0-15.91-25.37C369.67,224.19,351.34,219.56,351.34,219.56Z" style="fill:#fff"></path><g style="clip-path:url(#freepik--clip-path--inject-1043)"><path d="M382.15,275.63c-2.88-3.52,1.6-8,5.12-10.87s-15.67-.64-16.63-2.24,4.16-4.48,7-7-8.45,2.81-15-1S352.09,252,352.09,252s7-9.59,8.63-15.35-1-6.71-1-6.71l-1.88-8.25c-3.77-1.39-6.54-2.09-6.54-2.09s-9.06-1.61-13.49.8-30,21.54-30,21.54l-21.74-16.5v10.67s15.1,18.12,19.53,19.32,35.43-15.9,35.43-15.9-1.2,16.71.81,20.33,11.68,6.65,19.53,10.07,16.11,12.89,20.94,15.1c3.93,1.8,7.2,1.74,10.12-3.44C389.33,279.6,384,277.87,382.15,275.63Z" style="fill:#5E4E97"></path><path d="M382.15,275.63c-2.88-3.52,1.6-8,5.12-10.87s-15.67-.64-16.63-2.24,4.16-4.48,7-7-8.45,2.81-15-1S352.09,252,352.09,252s7-9.59,8.63-15.35-1-6.71-1-6.71l-1.88-8.25c-3.77-1.39-6.54-2.09-6.54-2.09s-9.06-1.61-13.49.8-30,21.54-30,21.54l-21.74-16.5v10.67s15.1,18.12,19.53,19.32,35.43-15.9,35.43-15.9-1.2,16.71.81,20.33,11.68,6.65,19.53,10.07,16.11,12.89,20.94,15.1c3.93,1.8,7.2,1.74,10.12-3.44C389.33,279.6,384,277.87,382.15,275.63Z" style="fill:#fff;opacity:0.5"></path></g><path d="M351.34,219.56s-9.06-1.61-13.49.8-30,21.54-30,21.54l-21.74-16.5v10.67s15.1,18.12,19.53,19.32,35.43-15.9,35.43-15.9-1.2,16.71.81,20.33,11.68,6.65,19.53,10.07,16.11,12.89,20.94,15.1,8.66,1.61,12.08-7.85-.81-15.7-2-18.32a228.17,228.17,0,0,0-15.91-25.37C369.67,224.19,351.34,219.56,351.34,219.56Z" style="fill:none;stroke:#263238;stroke-linecap:round;stroke-linejoin:round"></path><path d="M369.22,258.29s8-.5,13.5-3.5" style="fill:none;stroke:#263238;stroke-linecap:round;stroke-linejoin:round"></path><path d="M366.72,260.29s11,1.5,19.5,0" style="fill:none;stroke:#263238;stroke-linecap:round;stroke-linejoin:round"></path><polyline points="331.22 232.29 341.07 239.49 323.72 234.79" style="fill:none;stroke:#263238;stroke-linecap:round;stroke-linejoin:round"></polyline><path d="M347.79,221.54s-1.71,8.17,1,13.61,6.8,6.81,9.87,2.73,3.74-14-1.7-16.68S348.81,220.18,347.79,221.54Z" style="fill:#263238;stroke:#263238;stroke-linecap:round;stroke-linejoin:round"></path><path d="M148.79,211.34s-5-1.77-14.33,7.25-18.58,18-24.42,28.13-8.67,25-9.37,34a15.45,15.45,0,0,0,20,15.6c7-2.06,30.37-33.64,34.08-38.6s7.43-11.14,7.43-11.14,19.46,18.22,26.54,21.4S207,269,207,269l.53-12s-10.44-1.77-11.32-2.3-15.92-17.51-23.71-26.89-13.09-15.21-17-16.63A8.52,8.52,0,0,0,148.79,211.34Z" style="fill:#fff"></path><g style="clip-path:url(#freepik--clip-path-2--inject-1043)"><path d="M172.49,227.79c-5.65-6.8-10-11.73-13.43-14.47l-.74.1c-10.86,2.06-17,21.43-17,21.43a138.54,138.54,0,0,1-1.47,13.79c-.88,4.11-9.39-8.51-9.39-5.28s6.16,9.1,7,10.27-2.64-.88-4.4-1.46-6.75,14.67-8.51,17.6-21.72,10.28-20.25,12.33,12.91-2.64,12.91-2.64-2.94,3.82-9.69,7.34a11.28,11.28,0,0,0-4.08,3.59,15.2,15.2,0,0,0,17.26,5.9c7-2.06,30.37-33.64,34.08-38.6s7.43-11.14,7.43-11.14,19.46,18.22,26.54,21.4S207,269,207,269l.53-12s-10.44-1.77-11.32-2.3S180.28,237.17,172.49,227.79Z" style="fill:#5E4E97"></path><path d="M172.49,227.79c-5.65-6.8-10-11.73-13.43-14.47l-.74.1c-10.86,2.06-17,21.43-17,21.43a138.54,138.54,0,0,1-1.47,13.79c-.88,4.11-9.39-8.51-9.39-5.28s6.16,9.1,7,10.27-2.64-.88-4.4-1.46-6.75,14.67-8.51,17.6-21.72,10.28-20.25,12.33,12.91-2.64,12.91-2.64-2.94,3.82-9.69,7.34a11.28,11.28,0,0,0-4.08,3.59,15.2,15.2,0,0,0,17.26,5.9c7-2.06,30.37-33.64,34.08-38.6s7.43-11.14,7.43-11.14,19.46,18.22,26.54,21.4S207,269,207,269l.53-12s-10.44-1.77-11.32-2.3S180.28,237.17,172.49,227.79Z" style="fill:#fff;opacity:0.5"></path></g><path d="M148.79,211.34s-5-1.77-14.33,7.25-18.58,18-24.42,28.13-8.67,25-9.37,34a15.45,15.45,0,0,0,20,15.6c7-2.06,30.37-33.64,34.08-38.6s7.43-11.14,7.43-11.14,19.46,18.22,26.54,21.4S207,269,207,269l.53-12s-10.44-1.77-11.32-2.3-15.92-17.51-23.71-26.89-13.09-15.21-17-16.63A8.52,8.52,0,0,0,148.79,211.34Z" style="fill:none;stroke:#263238;stroke-linecap:round;stroke-linejoin:round"></path><path d="M109.22,268.29a10.25,10.25,0,0,0,10-1" style="fill:none;stroke:#263238;stroke-linecap:round;stroke-linejoin:round"></path><path d="M104.22,275.79s13,.5,19-7.5" style="fill:none;stroke:#263238;stroke-linecap:round;stroke-linejoin:round"></path><polyline points="174.72 239.79 162.23 246.55 178.22 244.79" style="fill:none;stroke:#263238;stroke-linecap:round;stroke-linejoin:round"></polyline><path d="M146.78,209.67s-9.17,4.75-9.51,8.49-.92,9.84,1.45,16.63,6.7,11.55,8.74,11.21,7.81-6.11,8.49-19.36S152.55,209.67,146.78,209.67Z" style="fill:#263238;stroke:#263238;stroke-linecap:round;stroke-linejoin:round"></path><rect x="200.57" y="196.29" width="101.5" height="105.5" style="fill:#263238;stroke:#263238;stroke-linecap:round;stroke-linejoin:round"></rect><rect x="204.9" y="200.79" width="92.84" height="96.5" style="fill:#fff;stroke:#263238;stroke-linecap:round;stroke-linejoin:round"></rect><path d="M297.74,204.87c-15.36,6.56-11.86,24.23-23.67,36.92-13.5,14.5-29.5,1.5-53,16a46.27,46.27,0,0,0-16.17,17.47v22h92.84Z" style="fill:#5E4E97;stroke:#263238;stroke-linecap:round;stroke-linejoin:round"></path><circle cx="223.82" cy="221.54" r="11.75" style="fill:#5E4E97;stroke:#263238;stroke-linecap:round;stroke-linejoin:round"></circle><path d="M261.91,194.66s-1.76-1.06-2.83.35-2.47,3.72-1.94,5,2.3-1.06,3.36-2.3A4.31,4.31,0,0,0,261.91,194.66Z" style="fill:#fff;stroke:#263238;stroke-linecap:round;stroke-linejoin:round"></path><path d="M264.75,194.13a1.7,1.7,0,0,0-2.84.53c-1.06,2.12-.53,7.07.36,7.6s1.41.36,2.12-2.3S265.45,196.25,264.75,194.13Z" style="fill:#fff;stroke:#263238;stroke-linecap:round;stroke-linejoin:round"></path><path d="M267.58,194a1.7,1.7,0,0,0-2.83.53c-1.07,2.12-.54,7.08.35,7.61s1.41.35,2.12-2.3S268.28,196.07,267.58,194Z" style="fill:#fff;stroke:#263238;stroke-linecap:round;stroke-linejoin:round"></path><path d="M270.41,193.77a1.7,1.7,0,0,0-2.83.53c-1.07,2.13-.53,7.08.35,7.61s1.41.35,2.12-2.3S271.11,195.9,270.41,193.77Z" style="fill:#fff;stroke:#263238;stroke-linecap:round;stroke-linejoin:round"></path><line x1="276.24" y1="305.33" x2="279.88" y2="302.45" style="fill:#fff;stroke:#263238;stroke-linecap:round;stroke-linejoin:round"></line><path d="M151.62,205.86s-3.72,4.42-6.37,7.07-3.89,2.66-3.89,7.79,2.18,18.36,5.36,19.07,16.22-18.54,16.22-18.54l-4.6-17.69S153.39,203.38,151.62,205.86Z" style="fill:#fff"></path><g style="clip-path:url(#freepik--clip-path-3--inject-1043)"><path d="M154.21,220.47c-1.11,7.74-4.55,12.61-9.12,17.81a3,3,0,0,0,1.63,1.51c3.19.71,16.22-18.54,16.22-18.54l-3.09-11.9-2.41-2.09A60.1,60.1,0,0,0,154.21,220.47Z" style="fill:#5E4E97"></path><path d="M154.21,220.47c-1.11,7.74-4.55,12.61-9.12,17.81a3,3,0,0,0,1.63,1.51c3.19.71,16.22-18.54,16.22-18.54l-3.09-11.9-2.41-2.09A60.1,60.1,0,0,0,154.21,220.47Z" style="fill:#fff;opacity:0.5"></path></g><path d="M151.62,205.86s-3.72,4.42-6.37,7.07-3.89,2.66-3.89,7.79,2.18,18.36,5.36,19.07,16.22-18.54,16.22-18.54l-4.6-17.69S153.39,203.38,151.62,205.86Z" style="fill:none;stroke:#263238;stroke-linecap:round;stroke-linejoin:round"></path><path d="M182,192.76c.84,2.12,1,4.55,1,7.61,0,3.54-1.06,6.55-.53,8.14s3.18,3.72,2.48,5.31-4.78,2.47-4.78,3a60.22,60.22,0,0,1-4.6,9.9c-1.77,2.83-6,1.59-12.21-.88s-7.07-7.08-7.78-10.09.53-13.62.88-21.23c.19-4,1-6.93,5-8.72a16.77,16.77,0,0,1,16,1.61A11.58,11.58,0,0,1,182,192.76Z" style="fill:#fff"></path><g style="clip-path:url(#freepik--clip-path-4--inject-1043)"><path d="M182.93,200.37c0-3.06-.12-5.49-1-7.61a11.58,11.58,0,0,0-4.65-5.34,17.13,17.13,0,0,0-12.7-2.64l.74,6.92a25.11,25.11,0,0,1,8.81,3.82c4.11,2.94,4.44,6.24,3.54,11.49s1.45,7-.9,12.28-2.06,6.75-7,6.75-10.28-4.69-12.62-7.92c-.64-.87-1.15-1.55-1.58-2.11a22.36,22.36,0,0,0,1,3.45c.31.62.65,1.26,1,1.93a11.58,11.58,0,0,0,5.69,4.46c6.2,2.47,10.44,3.71,12.21.88a60.22,60.22,0,0,0,4.6-9.9c0-.54,4.07-1.42,4.78-3s-1.95-3.72-2.48-5.31S182.93,203.91,182.93,200.37Z" style="fill:#5E4E97"></path><path d="M182.93,200.37c0-3.06-.12-5.49-1-7.61a11.58,11.58,0,0,0-4.65-5.34,17.13,17.13,0,0,0-12.7-2.64l.74,6.92a25.11,25.11,0,0,1,8.81,3.82c4.11,2.94,4.44,6.24,3.54,11.49s1.45,7-.9,12.28-2.06,6.75-7,6.75-10.28-4.69-12.62-7.92c-.64-.87-1.15-1.55-1.58-2.11a22.36,22.36,0,0,0,1,3.45c.31.62.65,1.26,1,1.93a11.58,11.58,0,0,0,5.69,4.46c6.2,2.47,10.44,3.71,12.21.88a60.22,60.22,0,0,0,4.6-9.9c0-.54,4.07-1.42,4.78-3s-1.95-3.72-2.48-5.31S182.93,203.91,182.93,200.37Z" style="fill:#fff;opacity:0.5"></path></g><path d="M182,192.76c.84,2.12,1,4.55,1,7.61,0,3.54-1.06,6.55-.53,8.14s3.18,3.72,2.48,5.31-4.78,2.47-4.78,3a60.22,60.22,0,0,1-4.6,9.9c-1.77,2.83-6,1.59-12.21-.88s-7.07-7.08-7.78-10.09.53-13.62.88-21.23c.19-4,1-6.93,5-8.72a16.77,16.77,0,0,1,16,1.61A11.58,11.58,0,0,1,182,192.76Z" style="fill:none;stroke:#263238;stroke-linecap:round;stroke-linejoin:round"></path><path d="M178.58,207.06c-.07,1.22-.52,2.18-1,2.15s-.81-1-.74-2.26.52-2.18,1-2.15S178.65,205.84,178.58,207.06Z" style="fill:#222220"></path><path d="M169.13,214.7s.53,3.19,4.78,3.54" style="fill:none;stroke:#263238;stroke-linecap:round;stroke-linejoin:round"></path><path d="M175,202.32s2.3-2.65,5.31-1.06" style="fill:none;stroke:#263238;stroke-linecap:round;stroke-linejoin:round"></path><path d="M155.69,203.38s2.83,1.42,3.36-.71.26-3.35,1.67-3.88,6.47-1.07,5.76-4.26-2.06-3.68.24-4.74,6.31,1.17,12.5,4,12.2,0,14.32-3.68.89-15-7.25-15c-5.38,0-6.69,2-7.92,2.55s-10.66-4.86-20.75-2.74-12.37,16.44-11,20.86S149.14,208.69,155.69,203.38Z" style="fill:#263238;stroke:#263238;stroke-linecap:round;stroke-linejoin:round"></path><path d="M188.12,189.76a4.79,4.79,0,0,1-3.51,1.82c-6.39.67-12.78-4.71-18.83-6.73s-15.81.67-18.84,6.73c0,0,5.38-5.05,13.79-1.35" style="fill:none;stroke:#fff;stroke-linecap:round;stroke-linejoin:round;stroke-width:0.75px"></path><path d="M189,182.83a12.06,12.06,0,0,1,.21,4.12" style="fill:none;stroke:#fff;stroke-linecap:round;stroke-linejoin:round;stroke-width:0.75px"></path><path d="M157.1,205.68s-1.59-7.43-3.71-8.49-5.13-.89-5.49,4.6,2.66,8.14,4.25,8.49,4.07-1.06,4.07-1.06" style="fill:#fff;stroke:#263238;stroke-linecap:round;stroke-linejoin:round"></path><path d="M210.53,300l8.84-6.37a7.58,7.58,0,0,1,7.79-.88,77.22,77.22,0,0,0,8,2.3c.53,0,.18,1.24-1.42,1.77s-4.07.18-5.83,0a6.44,6.44,0,0,0-3.37.71s8.14,1.41,10.26,2.12,5.14,1.95,4.25,2.83a7.85,7.85,0,0,1-2.65,1.95c-.71.17-2-.71-4.25.35s-7.08,2.48-9.38,2.48-12.2-2.83-12.2-2.83Z" style="fill:#fff;stroke:#263238;stroke-linecap:round;stroke-linejoin:round"></path><path d="M110.93,257.87s21,38.21,25.83,46,9.73,8.49,12.56,8.49,61.21-8,61.21-8V300s-29-1.41-37.33-3.18-20.7-2.48-20.7-2.48S141,260.7,136.4,254.15a19.53,19.53,0,0,0-11.32-7.78" style="fill:#fff"></path><g style="clip-path:url(#freepik--clip-path-5--inject-1043)"><path d="M152.5,294.31S141,260.7,136.4,254.15c-.28-.4-.57-.78-.87-1.15,1,3.69,3.82,13.69,5.47,19.12,2.06,6.75,4.7,10.28,2.94,10.86s-14.09-12.91-12.33-7.63,16.73,16.44,16.73,17.61-6.75,1.76-3.52,3.52,9.1,1.18,9.1,1.18-8.22,4.11-5.58,5,10.27-4.7,11.74-4.7c1.26,0,32.26,4.78,44.65,7.23l5.8-.78V300s-29-1.41-37.33-3.18S152.5,294.31,152.5,294.31Z" style="fill:#5E4E97"></path><path d="M152.5,294.31S141,260.7,136.4,254.15c-.28-.4-.57-.78-.87-1.15,1,3.69,3.82,13.69,5.47,19.12,2.06,6.75,4.7,10.28,2.94,10.86s-14.09-12.91-12.33-7.63,16.73,16.44,16.73,17.61-6.75,1.76-3.52,3.52,9.1,1.18,9.1,1.18-8.22,4.11-5.58,5,10.27-4.7,11.74-4.7c1.26,0,32.26,4.78,44.65,7.23l5.8-.78V300s-29-1.41-37.33-3.18S152.5,294.31,152.5,294.31Z" style="fill:#fff;opacity:0.5"></path></g><path d="M110.93,257.87s21,38.21,25.83,46,9.73,8.49,12.56,8.49,61.21-8,61.21-8V300s-29-1.41-37.33-3.18-20.7-2.48-20.7-2.48S141,260.7,136.4,254.15a19.53,19.53,0,0,0-11.32-7.78" style="fill:none;stroke:#263238;stroke-linecap:round;stroke-linejoin:round"></path><path d="M359.2,243.31l-28.8,33L288.12,289s-11.27-1-13.89-1.21-4.63,1.81-6.24,3.42-5.64,3-4.83,4.23,2.21.61,4.83-.2,4.43-1.21,4.43-1.21-8.66,8.06-10.87,10.27-1.82,3.42-.41,3.42,9.06-7,9.06-7a56.28,56.28,0,0,0-3.82,5c-1.41,2.21-3.43,4-2,4.43s7.25-5,7.25-5l2.82-1.82s-4.63,5.24-3.62,5.84,5.43-3.82,5.43-3.82,7.25-2.42,9.26-4.83,3.23-4,3.23-4,22.75-4.23,31.2-5.64,18.33-2.62,21.95-5.84,32.21-30.4,33.62-34" style="fill:#fff"></path><g style="clip-path:url(#freepik--clip-path-6--inject-1043)"><path d="M341.85,269.23c-1-.21,5-10,9.37-16.77L330.4,276.33,288.12,289l-8.88-.78c.15.91.25,1.46.25,1.46l3.84,6.72S327.46,282,329.38,282s1.92.64,4.16,1.28.32-2.56.32-2.56a49.34,49.34,0,0,0,8.95-1.92c3.52-1.28-8.31-1-6.39-1.92s19.51-10.87,23.34-17.59S343.45,269.55,341.85,269.23Z" style="fill:#5E4E97"></path><path d="M341.85,269.23c-1-.21,5-10,9.37-16.77L330.4,276.33,288.12,289l-8.88-.78c.15.91.25,1.46.25,1.46l3.84,6.72S327.46,282,329.38,282s1.92.64,4.16,1.28.32-2.56.32-2.56a49.34,49.34,0,0,0,8.95-1.92c3.52-1.28-8.31-1-6.39-1.92s19.51-10.87,23.34-17.59S343.45,269.55,341.85,269.23Z" style="fill:#fff;opacity:0.5"></path></g><path d="M359.2,243.31l-28.8,33L288.12,289s-11.27-1-13.89-1.21-4.63,1.81-6.24,3.42-5.64,3-4.83,4.23,2.21.61,4.83-.2,4.43-1.21,4.43-1.21-8.66,8.06-10.87,10.27-1.82,3.42-.41,3.42,9.06-7,9.06-7a56.28,56.28,0,0,0-3.82,5c-1.41,2.21-3.43,4-2,4.43s7.25-5,7.25-5l2.82-1.82s-4.63,5.24-3.62,5.84,5.43-3.82,5.43-3.82,7.25-2.42,9.26-4.83,3.23-4,3.23-4,22.75-4.23,31.2-5.64,18.33-2.62,21.95-5.84,32.21-30.4,33.62-34" style="fill:none;stroke:#263238;stroke-linecap:round;stroke-linejoin:round"></path><path d="M268,291.23c-1.61,1.61-5.64,3-4.83,4.23s2.21.61,4.83-.2,4.43-1.21,4.43-1.21-8.66,8.06-10.87,10.27-1.82,3.42-.41,3.42,9.06-7,9.06-7a56.28,56.28,0,0,0-3.82,5c-1.41,2.21-3.43,4-2,4.43s7.25-5,7.25-5l2.82-1.82s-4.63,5.24-3.62,5.84,5.43-3.82,5.43-3.82,7.25-2.42,9.26-4.83,3.23-4,3.23-4l-.61-7.45s-11.27-1-13.89-1.21S269.6,289.62,268,291.23Z" style="fill:#fff;stroke:#263238;stroke-linecap:round;stroke-linejoin:round"></path><path d="M329.2,185.93a21.31,21.31,0,0,0-1.82,10.27c.61,5.24.81,7.85-.2,9.26s-2.61.81-2.41,3.43,3.42,3.62,3.42,3.62,4.43,8.66,6,10.47,3.82,1,5.64.2,5.43-2.62,5.43-2.62,4.63,12.08,6.85,14.9,4-1,4.63-4.23,1-10.47,0-12.88-3.83-8.66-3.83-8.66,5.84-.8,9.47-8.66-4-18.12-15.1-20.53S330.4,183.11,329.2,185.93Z" style="fill:#fff"></path><g style="clip-path:url(#freepik--clip-path-7--inject-1043)"><path d="M350.17,211s-1.92,5.43-2.88,6.71-9,4.48-12.15,2.56-4.8-7.67-4.48-12.47-1.6-10.24,2.56-12.48,11.83-.64,11.83-.64l8.64-3.51-19.19-5.76s-2.78,1-6.06,2.44a20,20,0,0,0-1.06,8.32c.61,5.24.81,7.85-.2,9.26s-2.62.81-2.41,3.43,3.42,3.62,3.42,3.62,4.43,8.66,6,10.47,3.82,1,5.64.2,5.43-2.62,5.43-2.62,4.63,12.08,6.85,14.9c1.05,1.34,2,1.17,2.78.3C353.48,227.57,350.17,211,350.17,211Z" style="fill:#5E4E97"></path><path d="M350.17,211s-1.92,5.43-2.88,6.71-9,4.48-12.15,2.56-4.8-7.67-4.48-12.47-1.6-10.24,2.56-12.48,11.83-.64,11.83-.64l8.64-3.51-19.19-5.76s-2.78,1-6.06,2.44a20,20,0,0,0-1.06,8.32c.61,5.24.81,7.85-.2,9.26s-2.62.81-2.41,3.43,3.42,3.62,3.42,3.62,4.43,8.66,6,10.47,3.82,1,5.64.2,5.43-2.62,5.43-2.62,4.63,12.08,6.85,14.9c1.05,1.34,2,1.17,2.78.3C353.48,227.57,350.17,211,350.17,211Z" style="fill:#fff;opacity:0.5"></path></g><path d="M329.2,185.93a21.31,21.31,0,0,0-1.82,10.27c.61,5.24.81,7.85-.2,9.26s-2.61.81-2.41,3.43,3.42,3.62,3.42,3.62,4.43,8.66,6,10.47,3.82,1,5.64.2,5.43-2.62,5.43-2.62,4.63,12.08,6.85,14.9,4-1,4.63-4.23,1-10.47,0-12.88-3.83-8.66-3.83-8.66,5.84-.8,9.47-8.66-4-18.12-15.1-20.53S330.4,183.11,329.2,185.93Z" style="fill:none;stroke:#263238;stroke-linecap:round;stroke-linejoin:round"></path><ellipse cx="332.12" cy="203.65" rx="0.7" ry="1.81" style="fill:#222220"></ellipse><path d="M330.61,199s2.81-2.82,4.42,1.41" style="fill:none;stroke:#263238;stroke-linecap:round;stroke-linejoin:round"></path><path d="M333,215.53s5.24-.2,6-4.63" style="fill:none;stroke:#263238;stroke-linecap:round;stroke-linejoin:round"></path><path d="M354.35,198.89a3.36,3.36,0,0,0-3.74,2.33c-.44,1.31-1.32,2.74-3.09,2.63-3.22-.2-2.82-5.64-4-8s-5.23-2.42-12.48-3-12.89-.61-12.28-9.87,6.44-15.7,10.47-14.7,2.81,5.24,2.81,5.24,12.89-6.24,23.76-3.22,13.49,13.29,13.09,23-5.23,15.3-8.46,16.71-5.63,3.63-7,3.22-2-3.62-.81-4.63,4.83-5.43,3.83-8A2.53,2.53,0,0,0,354.35,198.89Z" style="fill:#263238;stroke:#263238;stroke-linecap:round;stroke-linejoin:round"></path><path d="M326.87,183.17s-3.7,7.4,4.7,7.73,18.84-5.38,26.57-3,8.41,9.41,6.39,14.12" style="fill:none;stroke:#fff;stroke-linecap:round;stroke-linejoin:round;stroke-width:0.75px"></path><path d="M341,182.16s21.52-8.41,24.89,4" style="fill:none;stroke:#fff;stroke-linecap:round;stroke-linejoin:round;stroke-width:0.75px"></path></g></svg>